<mxfile host="Electron" agent="Mozilla/5.0 (X11; Linux x86_64) AppleWebKit/537.36 (KHTML, like Gecko) draw.io/24.7.8 Chrome/128.0.6613.36 Electron/32.0.1 Safari/537.36" version="24.7.8">
  <diagram name="Page-1" id="V6K59OurXlCZu1XfLTo-">
    <mxGraphModel dx="730" dy="754" grid="1" gridSize="10" guides="1" tooltips="1" connect="1" arrows="1" fold="1" page="1" pageScale="1" pageWidth="850" pageHeight="1100" math="1" shadow="0">
      <root>
        <mxCell id="0" />
        <mxCell id="1" parent="0" />
        <mxCell id="PW6K5gDSVtJ3SWTwdyAS-1" value="" style="pointerEvents=1;verticalLabelPosition=bottom;shadow=0;dashed=0;align=center;html=1;verticalAlign=top;shape=mxgraph.electrical.capacitors.capacitor_1;direction=south;strokeWidth=3;" parent="1" vertex="1">
          <mxGeometry x="320" y="220" width="60" height="100" as="geometry" />
        </mxCell>
        <mxCell id="PW6K5gDSVtJ3SWTwdyAS-2" value="" style="pointerEvents=1;verticalLabelPosition=bottom;shadow=0;dashed=0;align=center;html=1;verticalAlign=top;shape=mxgraph.electrical.capacitors.capacitor_1;direction=south;strokeWidth=3;" parent="1" vertex="1">
          <mxGeometry x="320" y="310" width="60" height="100" as="geometry" />
        </mxCell>
        <mxCell id="PW6K5gDSVtJ3SWTwdyAS-3" value="" style="pointerEvents=1;verticalLabelPosition=bottom;shadow=0;dashed=0;align=center;html=1;verticalAlign=top;shape=mxgraph.electrical.signal_sources.signal_ground;strokeWidth=3;" parent="1" vertex="1">
          <mxGeometry x="327.5" y="410" width="45" height="30" as="geometry" />
        </mxCell>
        <mxCell id="PW6K5gDSVtJ3SWTwdyAS-4" value="&lt;font style=&quot;font-size: 17px;&quot;&gt;$$\Delta V_x$$&lt;/font&gt;" style="text;html=1;align=center;verticalAlign=middle;whiteSpace=wrap;rounded=0;" parent="1" vertex="1">
          <mxGeometry x="365" y="310" width="60" height="30" as="geometry" />
        </mxCell>
        <mxCell id="PW6K5gDSVtJ3SWTwdyAS-5" value="&lt;font style=&quot;font-size: 17px;&quot;&gt;$$\Delta V_i$$&lt;/font&gt;" style="text;html=1;align=center;verticalAlign=middle;whiteSpace=wrap;rounded=0;" parent="1" vertex="1">
          <mxGeometry x="360" y="220" width="60" height="30" as="geometry" />
        </mxCell>
        <mxCell id="rTskfZm-J4dlcgSDKtLb-1" value="&lt;font style=&quot;font-size: 17px;&quot;&gt;$$C_1$$&lt;/font&gt;" style="text;html=1;align=center;verticalAlign=middle;whiteSpace=wrap;rounded=0;" vertex="1" parent="1">
          <mxGeometry x="260" y="255" width="60" height="30" as="geometry" />
        </mxCell>
        <mxCell id="rTskfZm-J4dlcgSDKtLb-2" value="&lt;font style=&quot;font-size: 17px;&quot;&gt;$$C_2$$&lt;/font&gt;" style="text;html=1;align=center;verticalAlign=middle;whiteSpace=wrap;rounded=0;" vertex="1" parent="1">
          <mxGeometry x="260" y="345" width="60" height="30" as="geometry" />
        </mxCell>
      </root>
    </mxGraphModel>
  </diagram>
</mxfile>
